<?xml version="1.0" standalone="no"?>
<!DOCTYPE svg PUBLIC "-//W3C//DTD SVG 20010904//EN"
 "http://www.w3.org/TR/2001/REC-SVG-20010904/DTD/svg10.dtd">
<svg version="1.0" xmlns="http://www.w3.org/2000/svg"
 width="208.000000pt" height="208.000000pt" viewBox="0 0 208.000000 208.000000"
 preserveAspectRatio="xMidYMid meet">

<g transform="translate(0.000000,208.000000) scale(0.100000,-0.100000)"
fill="#000000" stroke="none">
<path d="M0 1040 l0 -1040 1040 0 1040 0 0 1040 0 1040 -1040 0 -1040 0 0
-1040z m1543 1019 c40 -11 77 -56 77 -94 0 -26 -34 -81 -58 -94 -10 -5 -99
-17 -197 -25 -98 -9 -179 -17 -180 -18 -1 -2 -9 -163 -18 -358 -25 -534 -68
-1331 -73 -1368 -9 -59 -78 -83 -178 -62 -37 7 -68 21 -86 38 -26 24 -30 39
-44 142 -54 392 -52 982 4 1420 9 74 15 137 14 139 -2 2 -49 -3 -103 -12 -55
-10 -112 -17 -126 -17 -67 0 -124 68 -110 131 11 48 54 75 142 88 188 28 569
71 838 94 22 2 45 4 50 5 6 1 27 -3 48 -9z"/>
</g>
</svg>
